<svg width="128" height="128" viewBox="0 0 128 128" fill="none" xmlns="http://www.w3.org/2000/svg">
<rect width="128" height="128" rx="8" fill="#1550E8"/>
<rect width="128" height="128" rx="8" fill="url(#paint0_linear_1_145)" fill-opacity="0.2"/>
<path d="M39.2959 77.5918L48.9053 42.6777H60.957L46.3428 86H39.0557L39.2959 77.5918ZM32.6895 42.6777L42.3389 77.6318L42.5391 86H35.2119L20.5977 42.6777H32.6895ZM92.9883 42.6777H103.438V84.5586C103.438 88.5091 102.558 91.859 100.796 94.6084C99.0609 97.3844 96.6318 99.4798 93.5088 100.895C90.3857 102.336 86.7555 103.057 82.6182 103.057C80.8031 103.057 78.8812 102.816 76.8525 102.336C74.8506 101.855 72.9287 101.108 71.0869 100.094C69.2718 99.0794 67.7503 97.7982 66.5225 96.25L71.6074 89.4434C72.9421 90.9915 74.4902 92.1927 76.252 93.0469C78.0137 93.9277 79.9622 94.3682 82.0977 94.3682C84.1797 94.3682 85.9414 93.9811 87.3828 93.207C88.8242 92.4596 89.932 91.3519 90.7061 89.8838C91.4801 88.4424 91.8672 86.694 91.8672 84.6387V52.6875L92.9883 42.6777ZM63.8398 64.8594V64.0186C63.8398 60.7087 64.2402 57.7057 65.041 55.0098C65.8685 52.2871 67.0296 49.9515 68.5244 48.0029C70.0459 46.0544 71.8877 44.5462 74.0498 43.4785C76.2119 42.4108 78.6543 41.877 81.377 41.877C84.2598 41.877 86.6755 42.4108 88.624 43.4785C90.5726 44.5462 92.1742 46.0677 93.4287 48.043C94.6833 49.9915 95.6576 52.3005 96.3516 54.9697C97.0723 57.6123 97.6328 60.5085 98.0332 63.6582V65.5C97.6328 68.5163 97.0322 71.319 96.2314 73.9082C95.4307 76.4974 94.3763 78.7663 93.0684 80.7148C91.7604 82.6367 90.1322 84.1315 88.1836 85.1992C86.2617 86.2669 83.9661 86.8008 81.2969 86.8008C78.6276 86.8008 76.2119 86.2536 74.0498 85.1592C71.9144 84.0648 70.0859 82.5299 68.5645 80.5547C67.043 78.5794 65.8685 76.2572 65.041 73.5879C64.2402 70.9186 63.8398 68.0091 63.8398 64.8594ZM75.3711 64.0186V64.8594C75.3711 66.6478 75.5446 68.3161 75.8916 69.8643C76.2386 71.4124 76.7725 72.7871 77.4932 73.9883C78.2406 75.1628 79.1615 76.0837 80.2559 76.751C81.377 77.3916 82.6982 77.7119 84.2197 77.7119C86.3285 77.7119 88.0501 77.2715 89.3848 76.3906C90.7194 75.4831 91.7204 74.2419 92.3877 72.667C93.055 71.0921 93.4421 69.277 93.5488 67.2217V61.9766C93.4954 60.2949 93.2686 58.7868 92.8682 57.4521C92.4678 56.0908 91.9072 54.9297 91.1865 53.9688C90.4658 53.0078 89.5316 52.2604 88.3838 51.7266C87.236 51.1927 85.8747 50.9258 84.2998 50.9258C82.7783 50.9258 81.457 51.2728 80.3359 51.9668C79.2415 52.6341 78.3206 53.555 77.5732 54.7295C76.8525 55.904 76.3053 57.292 75.9316 58.8936C75.5579 60.4684 75.3711 62.1768 75.3711 64.0186Z" fill="white"/>
<defs>
<linearGradient id="paint0_linear_1_145" x1="64" y1="0" x2="64" y2="128" gradientUnits="userSpaceOnUse">
<stop stop-color="#1550E8"/>
<stop offset="1"/>
</linearGradient>
</defs>
</svg>
